<svg width="500" height="500" viewBox="0 0 500 500" fill="none" xmlns="http://www.w3.org/2000/svg">
<g clip-path="url(#clip0_1_11)">
<circle cx="250" cy="250" r="250" fill="#43D162" fill-opacity="0.32"/>
<path fill-rule="evenodd" clip-rule="evenodd" d="M208 323H191.155C190.505 361.817 159.636 374.857 140.21 380H136C80.2192 380 35 425.219 35 481C35 536.781 80.2192 582 136 582H380C435.781 582 481 536.781 481 481C481 425.219 435.781 380 380 380H359.405C339.979 374.857 309.11 361.817 308.459 323H291H278H221.615H208Z" fill="#3BBE58"/>
<path d="M363 179.951C363 252.649 312.408 361 250 361C187.592 361 137 252.649 137 179.951C137 148.433 146.51 119.502 162.369 96.8388C183.089 67.2291 214.649 60 250 60C285.351 60 316.911 67.2291 337.631 96.8388C353.49 119.502 363 148.433 363 179.951Z" fill="#43D162"/>
</g>
<defs>
<clipPath id="clip0_1_11">
<rect width="500" height="500" rx="250" fill="white"/>
</clipPath>
</defs>
</svg>
