<svg width="400" height="344" viewBox="0 0 400 344" fill="none" xmlns="http://www.w3.org/2000/svg">
<rect width="400" height="300" rx="50" fill="url(#paint0_linear_9_67)"/>
<path fill-rule="evenodd" clip-rule="evenodd" d="M50 0C22.3858 0 5.67828e-06 22.3858 5.67828e-06 50L1.86358e-06 214L-3.8147e-06 343.904C-3.8147e-06 343.904 29.6735 321.36 51.5 312.5C67.8645 305.857 92.5011 301.757 104.859 300H277.049C298.563 300 305.885 284.984 295.498 266.144C286.031 248.974 289.165 223.125 301.649 208.007C303.749 205.463 306.324 203.075 309.5 200.5C313.027 197.641 320.047 193.158 328.111 188.009C339.448 180.769 352.848 172.213 361.5 165C363.73 163.141 367.178 159.558 371.215 155.363C372.197 154.343 373.213 153.287 374.255 152.211C388.478 137.523 400 117.094 400 96.6484V50C400 22.3858 377.614 0 350 0H50Z" fill="#8A4FEC"/>
<mask id="mask0_9_67" style="mask-type:alpha" maskUnits="userSpaceOnUse" x="0" y="0" width="400" height="344">
<path fill-rule="evenodd" clip-rule="evenodd" d="M50 0C22.3858 0 0 22.3858 0 50L-3.8147e-06 214L-9.49297e-06 343.904C-9.49297e-06 343.904 29.6735 321.36 51.5 312.5C67.8645 305.857 92.5011 301.757 104.859 300H277.049C298.563 300 305.885 284.984 295.498 266.144C286.031 248.974 289.165 223.125 301.649 208.007C303.749 205.463 306.324 203.075 309.5 200.5C313.027 197.641 320.047 193.158 328.111 188.009C339.448 180.769 352.848 172.213 361.5 165C363.73 163.141 367.178 159.558 371.215 155.363C372.197 154.343 373.213 153.287 374.255 152.211C388.478 137.523 400 117.094 400 96.6484V50C400 22.3858 377.614 0 350 0H50Z" fill="#41C935"/>
</mask>
<g mask="url(#mask0_9_67)">
<path d="M40.4773 208V91.6364H85.0227C93.4318 91.6364 100.42 92.9621 105.989 95.6136C111.595 98.2273 115.78 101.807 118.545 106.352C121.348 110.898 122.75 116.049 122.75 121.807C122.75 126.542 121.841 130.595 120.023 133.966C118.205 137.299 115.761 140.008 112.693 142.091C109.625 144.174 106.197 145.67 102.409 146.58V147.716C106.538 147.943 110.496 149.212 114.284 151.523C118.11 153.795 121.235 157.015 123.659 161.182C126.083 165.348 127.295 170.386 127.295 176.295C127.295 182.318 125.837 187.735 122.92 192.545C120.004 197.318 115.61 201.087 109.739 203.852C103.867 206.617 96.4811 208 87.5795 208H40.4773ZM61.5568 190.386H84.2273C91.8788 190.386 97.3902 188.928 100.761 186.011C104.17 183.057 105.875 179.269 105.875 174.648C105.875 171.201 105.023 168.095 103.318 165.33C101.614 162.527 99.1894 160.33 96.0455 158.739C92.9015 157.11 89.1515 156.295 84.7955 156.295H61.5568V190.386ZM61.5568 141.125H82.4091C86.0455 141.125 89.322 140.462 92.2386 139.136C95.1553 137.773 97.447 135.86 99.1136 133.398C100.818 130.898 101.67 127.943 101.67 124.534C101.67 120.027 100.08 116.314 96.8977 113.398C93.7538 110.481 89.0758 109.023 82.8636 109.023H61.5568V141.125ZM161.838 209.761C156.308 209.761 151.327 208.777 146.895 206.807C142.501 204.799 139.016 201.845 136.44 197.943C133.902 194.042 132.634 189.231 132.634 183.511C132.634 178.587 133.543 174.515 135.361 171.295C137.179 168.076 139.66 165.5 142.804 163.568C145.948 161.636 149.49 160.178 153.429 159.193C157.406 158.17 161.516 157.432 165.759 156.977C170.872 156.447 175.02 155.973 178.202 155.557C181.384 155.102 183.694 154.42 185.134 153.511C186.611 152.564 187.349 151.106 187.349 149.136V148.795C187.349 144.515 186.08 141.201 183.543 138.852C181.005 136.504 177.349 135.33 172.577 135.33C167.539 135.33 163.543 136.428 160.588 138.625C157.671 140.822 155.702 143.417 154.679 146.409L135.474 143.682C136.99 138.379 139.49 133.947 142.974 130.386C146.459 126.788 150.721 124.098 155.759 122.318C160.796 120.5 166.365 119.591 172.463 119.591C176.668 119.591 180.853 120.083 185.02 121.068C189.187 122.053 192.993 123.682 196.44 125.955C199.887 128.189 202.652 131.239 204.736 135.102C206.857 138.966 207.918 143.795 207.918 149.591V208H188.145V196.011H187.463C186.213 198.436 184.452 200.708 182.179 202.83C179.944 204.913 177.122 206.598 173.713 207.886C170.342 209.136 166.384 209.761 161.838 209.761ZM167.179 194.648C171.308 194.648 174.887 193.833 177.918 192.205C180.948 190.538 183.277 188.341 184.906 185.614C186.573 182.886 187.406 179.913 187.406 176.693V166.409C186.762 166.939 185.664 167.432 184.111 167.886C182.596 168.341 180.891 168.739 178.997 169.08C177.103 169.42 175.228 169.723 173.372 169.989C171.516 170.254 169.906 170.481 168.543 170.67C165.474 171.087 162.728 171.769 160.304 172.716C157.88 173.663 155.967 174.989 154.565 176.693C153.164 178.36 152.463 180.519 152.463 183.17C152.463 186.958 153.846 189.818 156.611 191.75C159.376 193.682 162.899 194.648 167.179 194.648ZM289.577 143.795L270.827 145.841C270.296 143.947 269.368 142.167 268.043 140.5C266.755 138.833 265.012 137.489 262.815 136.466C260.618 135.443 257.929 134.932 254.747 134.932C250.467 134.932 246.868 135.86 243.952 137.716C241.073 139.572 239.652 141.977 239.69 144.932C239.652 147.47 240.58 149.534 242.474 151.125C244.406 152.716 247.588 154.023 252.02 155.045L266.906 158.227C275.164 160.008 281.3 162.83 285.315 166.693C289.368 170.557 291.414 175.614 291.452 181.864C291.414 187.356 289.804 192.205 286.622 196.409C283.478 200.576 279.103 203.833 273.497 206.182C267.891 208.53 261.452 209.705 254.179 209.705C243.497 209.705 234.899 207.47 228.384 203C221.868 198.492 217.986 192.223 216.736 184.193L236.793 182.261C237.702 186.201 239.634 189.174 242.588 191.182C245.543 193.189 249.387 194.193 254.122 194.193C259.009 194.193 262.929 193.189 265.884 191.182C268.876 189.174 270.372 186.693 270.372 183.739C270.372 181.239 269.406 179.174 267.474 177.545C265.58 175.917 262.626 174.667 258.611 173.795L243.724 170.67C235.353 168.928 229.16 165.992 225.145 161.864C221.13 157.697 219.141 152.432 219.179 146.068C219.141 140.689 220.599 136.03 223.554 132.091C226.546 128.114 230.694 125.045 235.997 122.886C241.338 120.689 247.493 119.591 254.463 119.591C264.69 119.591 272.74 121.769 278.611 126.125C284.52 130.481 288.175 136.371 289.577 143.795ZM300.412 208V120.727H320.98V208H300.412ZM310.753 108.341C307.495 108.341 304.692 107.261 302.344 105.102C299.995 102.905 298.821 100.273 298.821 97.2045C298.821 94.0985 299.995 91.4659 302.344 89.3068C304.692 87.1098 307.495 86.0114 310.753 86.0114C314.048 86.0114 316.851 87.1098 319.162 89.3068C321.51 91.4659 322.685 94.0985 322.685 97.2045C322.685 100.273 321.51 102.905 319.162 105.102C316.851 107.261 314.048 108.341 310.753 108.341ZM354.699 91.6364V208H334.131V91.6364H354.699Z" fill="white"/>
</g>
<defs>
<linearGradient id="paint0_linear_9_67" x1="400" y1="174" x2="122" y2="350" gradientUnits="userSpaceOnUse">
<stop stop-color="#45EA56"/>
<stop offset="0.764665" stop-color="white"/>
</linearGradient>
</defs>
</svg>
